<mxfile host="app.diagrams.net" modified="2024-04-14T17:43:08.605Z" agent="Mozilla/5.0 (X11; Linux x86_64; rv:124.0) Gecko/20100101 Firefox/124.0" etag="psqbgfnqseA8fqrBRRSF" version="24.2.5" type="device">
  <diagram name="Page-1" id="_T175qcXc9xuy4Di4eR1">
    <mxGraphModel dx="722" dy="393" grid="1" gridSize="10" guides="1" tooltips="1" connect="1" arrows="1" fold="1" page="1" pageScale="1" pageWidth="600" pageHeight="1100" math="0" shadow="0">
      <root>
        <mxCell id="0" />
        <mxCell id="1" parent="0" />
        <mxCell id="gKjeypVQk6GidsOT72rz-10" value="&lt;font face=&quot;Courier New&quot;&gt;&amp;nbsp;module Scheduler&lt;/font&gt;" style="swimlane;whiteSpace=wrap;html=1;align=left;startSize=23;shadow=1;direction=east;shadowOffsetX=-1;shadowBlur=2;shadowOpacity=50;fillColor=#E6E6E6;" parent="1" vertex="1">
          <mxGeometry x="40" y="170" width="257" height="70" as="geometry">
            <mxRectangle x="60" y="80" width="140" height="30" as="alternateBounds" />
          </mxGeometry>
        </mxCell>
        <mxCell id="gKjeypVQk6GidsOT72rz-11" value="&lt;div align=&quot;left&quot;&gt;&lt;font face=&quot;Courier New&quot;&gt;&lt;b&gt;&amp;nbsp;val run : (&#39;a -&amp;gt; unit) -&amp;gt; &#39;a&lt;/b&gt;&lt;/font&gt;&lt;/div&gt;" style="text;html=1;align=left;verticalAlign=middle;resizable=0;points=[];autosize=1;strokeColor=none;fillColor=none;" parent="gKjeypVQk6GidsOT72rz-10" vertex="1">
          <mxGeometry y="30" width="230" height="30" as="geometry" />
        </mxCell>
        <mxCell id="gKjeypVQk6GidsOT72rz-23" style="edgeStyle=orthogonalEdgeStyle;rounded=0;orthogonalLoop=1;jettySize=auto;html=1;fillColor=#d5e8d4;strokeColor=#66FF66;strokeWidth=3;endArrow=oval;endFill=1;startSize=6;endSize=3;targetPerimeterSpacing=0;jumpStyle=none;" parent="1" edge="1">
          <mxGeometry relative="1" as="geometry">
            <mxPoint x="430" y="95" as="sourcePoint" />
            <mxPoint x="297.5" y="205" as="targetPoint" />
            <Array as="points">
              <mxPoint x="430" y="95" />
              <mxPoint x="370" y="95" />
              <mxPoint x="370" y="205" />
            </Array>
          </mxGeometry>
        </mxCell>
        <mxCell id="gKjeypVQk6GidsOT72rz-25" value="&lt;font style=&quot;font-size: 12px;&quot; face=&quot;Courier New&quot;&gt;&lt;i&gt;perform effects&lt;/i&gt;&lt;/font&gt;" style="edgeLabel;html=1;align=center;verticalAlign=middle;resizable=0;points=[];rotation=90;labelBackgroundColor=none;" parent="gKjeypVQk6GidsOT72rz-23" vertex="1" connectable="0">
          <mxGeometry x="0.1785" y="2" relative="1" as="geometry">
            <mxPoint x="8" y="12" as="offset" />
          </mxGeometry>
        </mxCell>
        <mxCell id="gKjeypVQk6GidsOT72rz-17" style="edgeStyle=orthogonalEdgeStyle;rounded=0;orthogonalLoop=1;jettySize=auto;html=1;exitX=0.5;exitY=1;exitDx=0;exitDy=0;entryX=0.5;entryY=0;entryDx=0;entryDy=0;strokeWidth=3;strokeColor=#3333FF;" parent="1" source="gKjeypVQk6GidsOT72rz-2" target="gKjeypVQk6GidsOT72rz-10" edge="1">
          <mxGeometry relative="1" as="geometry" />
        </mxCell>
        <mxCell id="gKjeypVQk6GidsOT72rz-2" value="&lt;font face=&quot;Courier New&quot;&gt;&amp;nbsp;module Domain_manager&lt;/font&gt;" style="swimlane;whiteSpace=wrap;html=1;align=left;startSize=23;shadow=1;direction=east;shadowOffsetX=-1;shadowBlur=2;shadowOpacity=50;fillColor=#E6E6E6;" parent="1" vertex="1">
          <mxGeometry x="40" y="40" width="257" height="70" as="geometry">
            <mxRectangle x="60" y="80" width="140" height="30" as="alternateBounds" />
          </mxGeometry>
        </mxCell>
        <mxCell id="gKjeypVQk6GidsOT72rz-6" value="&lt;div align=&quot;left&quot;&gt;&lt;font face=&quot;Courier New&quot;&gt;&amp;nbsp;&lt;/font&gt;&lt;font face=&quot;Courier New&quot;&gt;&lt;b&gt;val new_scheduler : (&#39;a -&amp;gt; unit) -&amp;gt; &lt;br&gt;&lt;/b&gt;&lt;/font&gt;&lt;/div&gt;" style="text;html=1;align=left;verticalAlign=middle;resizable=0;points=[];autosize=1;strokeColor=none;fillColor=none;" parent="gKjeypVQk6GidsOT72rz-2" vertex="1">
          <mxGeometry y="30" width="280" height="30" as="geometry" />
        </mxCell>
        <mxCell id="gKjeypVQk6GidsOT72rz-20" style="edgeStyle=orthogonalEdgeStyle;rounded=0;orthogonalLoop=1;jettySize=auto;html=1;exitX=0.5;exitY=1;exitDx=0;exitDy=0;entryX=0.5;entryY=0;entryDx=0;entryDy=0;strokeWidth=3;strokeColor=#3333FF;" parent="1" source="gKjeypVQk6GidsOT72rz-8" target="gKjeypVQk6GidsOT72rz-12" edge="1">
          <mxGeometry relative="1" as="geometry" />
        </mxCell>
        <mxCell id="gKjeypVQk6GidsOT72rz-8" value="&lt;font face=&quot;Courier New&quot;&gt;&amp;nbsp;module Fiber&lt;/font&gt;" style="swimlane;whiteSpace=wrap;html=1;align=left;startSize=23;shadow=1;direction=east;shadowOffsetX=-1;shadowBlur=2;shadowOpacity=50;fillColor=#E6E6E6;" parent="1" vertex="1">
          <mxGeometry x="430" y="40" width="270" height="90" as="geometry">
            <mxRectangle x="60" y="80" width="140" height="30" as="alternateBounds" />
          </mxGeometry>
        </mxCell>
        <mxCell id="gKjeypVQk6GidsOT72rz-9" value="&lt;font face=&quot;Courier New&quot;&gt;&lt;b&gt;&amp;nbsp;&lt;/b&gt;&lt;/font&gt;&lt;font face=&quot;Courier New&quot;&gt;&lt;b&gt;val fork_promise : &lt;/b&gt;&lt;/font&gt;&lt;font face=&quot;Courier New&quot;&gt;&lt;b&gt;(&#39;a -&amp;gt; unit) -&amp;gt; &#39;a&lt;br&gt;&lt;/b&gt;&lt;/font&gt;" style="text;html=1;align=left;verticalAlign=middle;resizable=0;points=[];autosize=1;strokeColor=none;fillColor=none;" parent="gKjeypVQk6GidsOT72rz-8" vertex="1">
          <mxGeometry y="40" width="300" height="30" as="geometry" />
        </mxCell>
        <mxCell id="gKjeypVQk6GidsOT72rz-21" style="edgeStyle=orthogonalEdgeStyle;rounded=0;orthogonalLoop=1;jettySize=auto;html=1;exitX=0.5;exitY=1;exitDx=0;exitDy=0;entryX=0.5;entryY=0;entryDx=0;entryDy=0;strokeWidth=3;strokeColor=#3333FF;" parent="1" source="gKjeypVQk6GidsOT72rz-12" target="gKjeypVQk6GidsOT72rz-14" edge="1">
          <mxGeometry relative="1" as="geometry" />
        </mxCell>
        <mxCell id="gKjeypVQk6GidsOT72rz-12" value="&lt;font face=&quot;Courier New&quot;&gt;&amp;nbsp;module Promise&lt;/font&gt;" style="swimlane;whiteSpace=wrap;html=1;align=left;startSize=23;shadow=1;direction=east;shadowOffsetX=-1;shadowBlur=2;shadowOpacity=50;fillColor=#E6E6E6;" parent="1" vertex="1">
          <mxGeometry x="430" y="170" width="270" height="100" as="geometry">
            <mxRectangle x="60" y="80" width="140" height="30" as="alternateBounds" />
          </mxGeometry>
        </mxCell>
        <mxCell id="gKjeypVQk6GidsOT72rz-13" value="&lt;div align=&quot;left&quot;&gt;&lt;b&gt;&lt;font face=&quot;Courier New&quot;&gt;&amp;nbsp;val create : unit -&amp;gt; &#39;a t&lt;br&gt;&lt;/font&gt;&lt;/b&gt;&lt;/div&gt;&lt;div align=&quot;left&quot;&gt;&lt;b&gt;&lt;font face=&quot;Courier New&quot;&gt;&amp;nbsp;val fulfill : &#39;a t -&amp;gt; &#39;a -&amp;gt; unit&lt;/font&gt;&lt;/b&gt;&lt;/div&gt;&lt;div align=&quot;left&quot;&gt;&lt;b&gt;&lt;font face=&quot;Courier New&quot;&gt;&amp;nbsp;val await : &#39;a t -&amp;gt; &#39;a&lt;br&gt;&lt;/font&gt;&lt;/b&gt;&lt;/div&gt;" style="text;html=1;align=left;verticalAlign=middle;resizable=0;points=[];autosize=1;strokeColor=none;fillColor=none;" parent="gKjeypVQk6GidsOT72rz-12" vertex="1">
          <mxGeometry y="30" width="260" height="60" as="geometry" />
        </mxCell>
        <mxCell id="gKjeypVQk6GidsOT72rz-15" value="&lt;div align=&quot;left&quot;&gt;&lt;font face=&quot;Courier New&quot;&gt;&lt;b&gt;&amp;nbsp;val create : unit -&amp;gt; t&lt;/b&gt;&lt;/font&gt;&lt;/div&gt;&lt;div align=&quot;left&quot;&gt;&lt;font face=&quot;Courier New&quot;&gt;&lt;b&gt;&amp;nbsp;val register : t -&amp;gt; (unit -&amp;gt; unit) -&amp;gt; &lt;br&gt;&lt;/b&gt;&lt;/font&gt;&lt;/div&gt;&lt;div align=&quot;left&quot;&gt;&lt;font face=&quot;Courier New&quot;&gt;&lt;b&gt;&amp;nbsp;val try_unregister : t -&amp;gt; register_ha&lt;/b&gt;&lt;/font&gt;&lt;/div&gt;&lt;div align=&quot;left&quot;&gt;&lt;font face=&quot;Courier New&quot;&gt;&lt;b&gt;&amp;nbsp;val signal_all : t -&amp;gt; ()&lt;br&gt;&lt;/b&gt;&lt;/font&gt;&lt;/div&gt;" style="text;html=1;align=left;verticalAlign=middle;resizable=0;points=[];autosize=1;strokeColor=none;fillColor=none;" parent="1" vertex="1">
          <mxGeometry x="430" y="340" width="300" height="80" as="geometry" />
        </mxCell>
        <mxCell id="gKjeypVQk6GidsOT72rz-18" value="" style="rounded=0;whiteSpace=wrap;html=1;strokeColor=none;" parent="1" vertex="1">
          <mxGeometry x="700.5" y="360" width="9.5" height="40" as="geometry" />
        </mxCell>
        <mxCell id="gKjeypVQk6GidsOT72rz-14" value="&amp;nbsp;module Scheduler" style="swimlane;whiteSpace=wrap;html=1;align=left;startSize=23;shadow=1;direction=east;shadowOffsetX=-1;shadowBlur=2;shadowOpacity=50;fillColor=#E6E6E6;" parent="1" vertex="1">
          <mxGeometry x="430" y="310" width="270" height="120" as="geometry">
            <mxRectangle x="60" y="80" width="140" height="30" as="alternateBounds" />
          </mxGeometry>
        </mxCell>
        <mxCell id="jlmgtHd3fbz2CvPcjy1o-1" value="" style="endArrow=none;html=1;rounded=0;" edge="1" parent="1">
          <mxGeometry width="50" height="50" relative="1" as="geometry">
            <mxPoint x="297" y="205" as="sourcePoint" />
            <mxPoint x="430" y="95" as="targetPoint" />
            <Array as="points">
              <mxPoint x="370" y="205" />
              <mxPoint x="370" y="95" />
            </Array>
          </mxGeometry>
        </mxCell>
        <mxCell id="jlmgtHd3fbz2CvPcjy1o-9" value="" style="endArrow=oval;html=1;rounded=0;exitX=-0.002;exitY=0.83;exitDx=0;exitDy=0;exitPerimeter=0;strokeColor=#66FF66;strokeWidth=3;endFill=1;startSize=6;endSize=3;targetPerimeterSpacing=0;jumpStyle=none;" edge="1" parent="1" source="gKjeypVQk6GidsOT72rz-13">
          <mxGeometry width="50" height="50" relative="1" as="geometry">
            <mxPoint x="320" y="210" as="sourcePoint" />
            <mxPoint x="297.5" y="220" as="targetPoint" />
            <Array as="points">
              <mxPoint x="370" y="250" />
              <mxPoint x="370" y="220" />
            </Array>
          </mxGeometry>
        </mxCell>
        <mxCell id="jlmgtHd3fbz2CvPcjy1o-10" value="" style="endArrow=none;html=1;rounded=0;endFill=0;" edge="1" parent="1">
          <mxGeometry width="50" height="50" relative="1" as="geometry">
            <mxPoint x="430" y="250" as="sourcePoint" />
            <mxPoint x="297" y="220" as="targetPoint" />
            <Array as="points">
              <mxPoint x="370" y="250" />
              <mxPoint x="370" y="220" />
            </Array>
          </mxGeometry>
        </mxCell>
        <mxCell id="jlmgtHd3fbz2CvPcjy1o-11" value="" style="rounded=0;whiteSpace=wrap;html=1;strokeColor=none;" vertex="1" parent="1">
          <mxGeometry x="700.5" y="90" width="9.5" height="10" as="geometry" />
        </mxCell>
        <mxCell id="jlmgtHd3fbz2CvPcjy1o-12" value="" style="rounded=0;whiteSpace=wrap;html=1;strokeColor=none;shadow=0;" vertex="1" parent="1">
          <mxGeometry x="297.5" y="80" width="9" height="10" as="geometry" />
        </mxCell>
      </root>
    </mxGraphModel>
  </diagram>
</mxfile>
